<svg xmlns="http://www.w3.org/2000/svg" width="40" height="40" viewBox="0 0 40 40">
  <circle cx="20" cy="20" r="18" fill="#6B9BFA"/>
  <path fill="#1E1F22" d="M11 8h11a4 4 0 0 1 4 4v5a4 4 0 0 1-4 4h-6l-5 4v-4a4 4 0 0 1-4-4v-5a4 4 0 0 1 4-4Z"/>
  <path fill="#6B9BFA" fill-rule="evenodd" d="m11 18 3.4-7h2.2l3.4 7h-2.3l-.6-1.4h-3.4l-.6 1.4H11Zm3.4-3.1h2l-1-2.3-1 2.3Z"/>
  <path fill="#2B2D30" d="M19 19h10a4 4 0 0 1 4 4v3a4 4 0 0 1-4 4v4l-5-4h-5a4 4 0 0 1-4-4v-3a4 4 0 0 1 4-4Z"/>
  <path fill="#6B9BFA" d="M19 22h10v2H19zm0 4h7v2h-7z"/>
</svg>
