<svg xmlns="http://www.w3.org/2000/svg" viewBox="950 175 916 916" version="1.1" width="16" height="16"><path d="M 1387.73 281.25 C 1381.26 298.44, 1375.97 312.86, 1375.98 313.29 C 1375.99 313.73, 1379.43 313.95, 1383.62 313.79 L 1391.24 313.5 1393.64 307 L 1396.04 300.5 1407.93 300.81 L 1419.82 301.11 1422.1 307.56 L 1424.37 314 1432.18 314 C 1436.48 314, 1440 313.81, 1440 313.57 C 1440 312.8, 1417.83 253.55, 1416.87 251.75 C 1416.09 250.3, 1414.52 250, 1407.71 250 L 1399.5 250 1387.73 281.25 M 1411.52 277 C 1413.05 281.68, 1414.5 286.06, 1414.75 286.75 C 1415.1 287.68, 1413.29 288, 1407.68 288 L 1400.15 288 1403.82 277.55 C 1405.85 271.81, 1407.78 267.42, 1408.13 267.8 C 1408.47 268.19, 1410 272.33, 1411.52 277 M 1345.64 279.56 C 1286.47 289.83, 1230.34 313.34, 1183.48 347.49 C 1177.71 351.69, 1173 355.49, 1173 355.93 C 1173 356.37, 1173.98 358.03, 1175.19 359.62 C 1176.39 361.2, 1177.46 362.63, 1177.57 362.8 C 1177.68 362.96, 1180.82 360.79, 1184.55 357.96 C 1232.88 321.38, 1295.34 295.54, 1354.48 287.65 L 1363.5 286.44 1363.8 281.72 C 1364.17 276.03, 1365.22 276.16, 1345.64 279.56 M 1452 281.48 C 1452 285.33, 1452.32 286.02, 1454.25 286.39 C 1455.49 286.63, 1462.56 287.81, 1469.96 289.01 C 1490.84 292.41, 1519.64 300.01, 1532.26 305.46 C 1533.64 306.06, 1534.33 305.46, 1535.51 302.64 C 1536.33 300.67, 1537 298.62, 1537 298.08 C 1537 295.52, 1494.4 283.78, 1469.69 279.54 C 1450.63 276.27, 1452 276.12, 1452 281.48 M 1556.71 284.02 C 1554.01 286.14, 1551.42 292.25, 1552.49 293.98 C 1553.69 295.93, 1559.81 295.18, 1560.5 293 C 1560.85 291.89, 1562.01 291, 1563.11 291 C 1564.19 291, 1566.84 291.9, 1569 293 C 1577.94 297.56, 1587 293.21, 1587 284.35 C 1587 282.39, 1579.4 282.53, 1578.64 284.5 C 1577.85 286.57, 1574.7 286.38, 1570.26 284 C 1565.45 281.42, 1560 281.43, 1556.71 284.02 M 1450.77 298.91 L 1449.26 302.74 1459.38 309.31 C 1475.58 319.83, 1509.62 348.72, 1507.87 350.46 C 1507.61 350.72, 1500.45 349.19, 1491.95 347.06 C 1461.81 339.49, 1439.4 336.65, 1410.5 336.73 C 1379.26 336.81, 1352.44 340.05, 1325.46 347.01 C 1316.81 349.24, 1313.37 349.76, 1312.58 348.94 C 1310.25 346.53, 1341.69 319.35, 1360.5 307.53 C 1363.8 305.46, 1366.6 303.68, 1366.72 303.58 C 1367.46 302.96, 1364.44 296, 1363.43 296 C 1359.48 296, 1331.49 316.93, 1314.64 332.5 L 1304.89 341.5 1299.56 341.17 C 1291.58 340.66, 1284.77 344.66, 1280.96 352.09 L 1279.12 355.69 1264.81 356.29 C 1240.71 357.31, 1219.85 360.83, 1194.17 368.23 L 1179.84 372.35 1180.5 375.93 C 1181.46 381.18, 1181.84 381.26, 1191.05 378.15 C 1202.47 374.3, 1223.21 369.42, 1236 367.58 C 1248.22 365.82, 1277.01 363.67, 1277.79 364.46 C 1278.09 364.76, 1277.21 365, 1275.83 365 C 1274.46 365, 1269.09 367.18, 1263.92 369.84 C 1207.35 398.9, 1158.23 448.36, 1127.29 507.4 C 1122.65 516.26, 1121.09 518.56, 1121.46 516 C 1125.26 490.04, 1129.08 473.75, 1136.17 453.17 C 1138.95 445.1, 1141.89 437.22, 1142.69 435.66 C 1143.49 434.09, 1144 432.69, 1143.82 432.53 C 1143.18 431.98, 1137.09 429, 1136.6 429 C 1134.76 429, 1124.19 459.51, 1119.58 478.12 C 1114.74 497.68, 1113.23 506.89, 1111.98 524.5 C 1111.4 532.75, 1110.18 542.8, 1109.27 546.83 C 1107.73 553.69, 1107.28 554.46, 1102.29 558.73 C 1099.35 561.23, 1096.8 563.11, 1096.61 562.89 C 1093.1 558.83, 1079.8 501.98, 1082.17 501.13 C 1084.8 500.2, 1090.5 494.12, 1092.14 490.51 C 1095.51 483.09, 1094.32 474.58, 1088.86 466.94 C 1087.62 465.2, 1092.15 457.61, 1106.32 437.72 C 1110.54 431.78, 1114 426.58, 1114 426.14 C 1114 425.03, 1109.58 421, 1108.37 421 C 1107.03 421, 1095.82 435.98, 1087.11 449.42 L 1080.03 460.35 1073.98 460.1 C 1054 459.29, 1043.96 481.44, 1057.66 496.11 L 1060.1 498.71 1057.45 504.61 C 1045.97 530.18, 1035.88 564.33, 1031.02 594.09 C 1028.18 611.56, 1028.1 611, 1033.38 611 L 1037.77 611 1038.92 602.75 C 1042.84 574.75, 1052.33 540.18, 1063.31 513.88 C 1067.05 504.93, 1067.97 503.5, 1069.97 503.5 C 1072.17 503.5, 1072.46 504.3, 1075.05 517.5 C 1078.43 534.66, 1081.1 545.22, 1085.65 559.31 L 1089.14 570.13 1081.8 577.81 C 1074.03 585.96, 1061.45 601.34, 1056.12 609.24 L 1052.92 613.98 1056.21 615.99 C 1060.64 618.69, 1061.16 618.57, 1063.66 614.24 C 1065.97 610.26, 1079.71 593.09, 1087.81 584.08 L 1092.69 578.65 1095.47 585.74 L 1098.25 592.83 1096.17 604.16 C 1089.93 638.16, 1089.71 674.32, 1095.54 708.87 L 1098.09 723.93 1095.9 729 C 1094.7 731.79, 1093.4 733.94, 1093.02 733.79 C 1091.52 733.18, 1074.68 714.49, 1068.83 706.94 C 1065.45 702.57, 1062.28 699, 1061.8 699 C 1061.11 699, 1058.07 700.66, 1055.15 702.63 C 1054.1 703.34, 1071.08 724.15, 1081.29 734.66 L 1090.19 743.82 1086.02 755.66 C 1081.48 768.59, 1074.62 795.16, 1073.49 804.26 C 1072.82 809.61, 1072.59 810, 1070.13 809.99 C 1067.72 809.99, 1067.1 809.02, 1062.63 798.29 C 1052.76 774.56, 1044.07 743.48, 1039.84 716.75 L 1037.5 702 1033.25 702 C 1028.03 702, 1028.08 701.46, 1031.53 721.69 C 1036.39 750.2, 1043.88 776.4, 1054.52 802.14 C 1059.5 814.18, 1059.72 815.08, 1058 816 C 1056.98 816.54, 1054.94 819.47, 1053.45 822.51 C 1046.02 837.7, 1057.69 855.02, 1074.5 853.74 L 1080.5 853.28 1087.88 864.71 C 1096.23 877.63, 1105.63 890, 1107.1 890 C 1107.64 890, 1109.37 889.05, 1110.95 887.88 L 1113.82 885.76 1106.97 876.52 C 1103.2 871.45, 1097.38 862.95, 1094.04 857.65 L 1087.97 848.01 1090.71 843.86 C 1094.47 838.18, 1095.15 828.17, 1092.16 822.32 C 1090.21 818.5, 1083.87 812, 1082.09 812 C 1079.82 812, 1090.23 767.46, 1095.69 753.82 C 1097.36 749.64, 1097.27 749.62, 1103.88 755.22 L 1107.09 757.95 1108.53 775.04 C 1111.05 804.85, 1114.43 826.58, 1120.11 849.5 C 1122.65 859.74, 1129.95 883.27, 1130.9 884.26 C 1131.3 884.68, 1133.1 884.51, 1134.9 883.88 C 1138.73 882.55, 1138.81 883.5, 1133.59 866.55 C 1128.91 851.32, 1124.53 831.7, 1121.44 812 C 1117.68 788.09, 1117.91 787.32, 1124.8 800.5 C 1133.77 817.65, 1152.16 847, 1153.94 847 C 1154.36 847, 1155.47 845.29, 1156.41 843.2 L 1158.12 839.41 1150.01 827.2 C 1138.8 810.32, 1118.23 770.71, 1119.21 767.9 C 1119.37 767.45, 1121.67 768.44, 1124.33 770.09 C 1128.47 772.67, 1129.66 774.2, 1132.65 780.8 C 1138.63 793.98, 1143.54 803.15, 1152.03 817.07 C 1156.53 824.46, 1160.41 830.82, 1160.65 831.21 C 1160.88 831.61, 1163.15 830.35, 1165.69 828.41 C 1168.23 826.47, 1172.03 824, 1174.15 822.92 L 1178 820.96 1175.54 817.23 C 1170.86 810.12, 1158.7 789, 1159.29 789 C 1159.49 789, 1162.2 790.03, 1165.3 791.29 C 1170.55 793.43, 1171.31 794.19, 1176.46 802.39 C 1185.83 817.32, 1187.46 819, 1192.53 819 C 1194.92 819, 1197.11 818.63, 1197.4 818.17 C 1197.68 817.71, 1195.64 814.22, 1192.86 810.42 C 1168.06 776.42, 1151.25 733.43, 1145.88 690.25 L 1144.61 680 1141.55 680.07 C 1135.08 680.22, 1135.13 680.07, 1137.18 694.5 C 1139.35 709.83, 1144.69 732.02, 1149.63 746.3 C 1153.44 757.29, 1161.58 776.7, 1163.26 778.77 C 1165.22 781.21, 1162.96 781.33, 1158.08 779.04 C 1153.47 776.88, 1152.92 776.2, 1149.17 768.03 C 1138 743.64, 1124.24 686.44, 1128.87 683.58 C 1131.05 682.23, 1129.96 680.44, 1125.46 677.98 C 1118.52 674.19, 1113 664.41, 1113 655.89 C 1113 653.14, 1112.9 653.09, 1106.33 652.8 L 1099.66 652.5 1099.87 645 C 1100.09 637.05, 1102.71 611.73, 1103.63 608.7 C 1104 607.44, 1106.73 611.5, 1112.61 622.08 C 1117.25 630.43, 1121.94 638.51, 1123.03 640.04 C 1125.48 643.49, 1125.48 644.16, 1123 648.23 C 1115.03 661.3, 1129.31 678.49, 1143.3 672.65 C 1156.3 667.22, 1157.4 647.91, 1145.08 641.54 C 1142.28 640.09, 1141.8 636.51, 1144 633.5 C 1144.4 632.95, 1145.02 629.2, 1145.38 625.17 C 1149.1 583.29, 1168.82 533.63, 1196.57 496.32 C 1201.21 490.09, 1205 484.62, 1205 484.18 C 1205 483.73, 1203.43 482.62, 1201.52 481.71 L 1198.04 480.05 1192.6 486.79 C 1186.8 493.97, 1172 515.81, 1172 517.2 C 1172 518.18, 1160.9 523.24, 1160.23 522.56 C 1159.06 521.39, 1174.83 496.36, 1185.35 482.67 L 1191.37 474.84 1190.19 470.41 C 1187.33 459.74, 1190.44 448.33, 1197.42 443.81 C 1201.9 440.9, 1201.9 440.91, 1196.53 436.87 C 1194.07 435.02, 1192.05 433.21, 1192.03 432.85 C 1191.98 431.78, 1215.68 411.4, 1225.67 403.92 C 1240.73 392.65, 1281 368.49, 1281 370.73 C 1281 372.55, 1269.54 387.76, 1268.48 387.35 C 1264.36 385.77, 1224.12 412.81, 1206.99 428.67 C 1201.36 433.88, 1201.15 434.24, 1202.78 435.94 C 1204.14 437.35, 1206.75 437.85, 1215.13 438.3 L 1225.75 438.87 1236.13 430.66 C 1241.83 426.14, 1248.08 421.36, 1250 420.02 C 1251.93 418.69, 1253.86 417.12, 1254.3 416.55 C 1255.37 415.15, 1254.92 417.15, 1252.53 424.33 C 1250.76 429.62, 1249.85 430.74, 1242.54 436.45 C 1230.54 445.85, 1230.32 446.16, 1233.1 449.92 C 1234.35 451.62, 1235.54 453, 1235.74 453 C 1235.94 453, 1239.17 450.52, 1242.92 447.5 C 1278.63 418.64, 1324.81 399.05, 1373.05 392.3 L 1385.61 390.55 1385.62 384.02 C 1385.63 380.44, 1385.83 376.83, 1386.07 376 C 1386.39 374.87, 1383.84 373.63, 1375.65 370.96 C 1366.61 368, 1365.05 367.2, 1366.3 366.16 C 1367.51 365.16, 1367.91 365.17, 1368.32 366.21 C 1368.74 367.25, 1368.86 367.25, 1368.92 366.19 C 1368.96 365.47, 1369.34 365.07, 1369.75 365.31 C 1370.16 365.54, 1371.53 364.66, 1372.8 363.36 C 1374.92 361.16, 1374.96 360.93, 1373.3 360.37 C 1372.31 360.04, 1370.24 359.26, 1368.71 358.63 L 1365.92 357.5 1368.71 356.3 C 1372.8 354.53, 1369.9 354.69, 1354.18 357.08 C 1346.66 358.23, 1340.24 359.61, 1339.91 360.15 C 1339.53 360.76, 1335.47 360.44, 1328.9 359.26 L 1318.5 357.4 1328 354.79 C 1350.39 348.63, 1373.27 345.06, 1392.73 344.71 L 1404.36 344.5 1404.59 351.71 C 1404.88 360.41, 1405.19 361, 1409.52 361 L 1412.92 361 1413.21 352.75 L 1413.5 344.5 1422.5 344.79 C 1447.78 345.59, 1483.78 352.2, 1507.93 360.46 C 1512.01 361.86, 1516.25 363, 1517.34 363 C 1522.12 363, 1517.5 364.17, 1509.46 365 C 1501.3 365.85, 1499.97 365.71, 1490.2 362.96 C 1470.81 357.52, 1452.38 354.5, 1426.25 352.5 L 1418 351.86 1418 356.76 C 1418 361.33, 1418.26 361.83, 1421.74 364.09 C 1423.8 365.42, 1426.54 368.14, 1427.83 370.13 L 1430.18 373.75 1440.1 374.46 C 1445.55 374.85, 1449.81 375.5, 1449.55 375.91 C 1449.11 376.63, 1442.79 378.15, 1434.7 379.48 L 1430.9 380.11 1431.2 385.3 C 1431.49 390.27, 1431.63 390.51, 1434.5 390.77 C 1480.7 394.96, 1536.19 417.46, 1572.88 446.89 C 1576.39 449.7, 1579.62 452, 1580.06 452 C 1580.5 452, 1581.87 450.58, 1583.11 448.85 L 1585.35 445.69 1582.43 443.26 C 1580.82 441.92, 1576.27 438.4, 1572.33 435.43 C 1566.11 430.75, 1564.88 429.29, 1563.04 424.39 C 1561.88 421.28, 1561.1 418.56, 1561.31 418.35 C 1561.79 417.88, 1578.36 429.55, 1585.65 435.5 C 1590.88 439.76, 1591.06 439.82, 1594 438.35 C 1595.94 437.38, 1597.01 436.09, 1597.02 434.68 C 1597.03 433.48, 1598.33 430.15, 1599.92 427.27 L 1602.8 422.05 1591.65 413.64 C 1579.14 404.21, 1565.79 395.6, 1552.69 388.52 C 1545.7 384.74, 1543.07 382.65, 1539.94 378.42 C 1535.09 371.85, 1535.08 371.59, 1539.75 373.53 C 1552.52 378.84, 1580.08 395.69, 1597.17 408.63 L 1606.98 416.06 1609.99 414.5 C 1611.65 413.65, 1613 412.38, 1613 411.68 C 1613 409.02, 1589.78 392.14, 1570 380.41 C 1558.26 373.45, 1557.72 373.01, 1561.2 373 C 1574.39 372.99, 1610.32 379.77, 1630.5 386.08 C 1648.58 391.73, 1647.42 391.58, 1648.8 388.53 C 1651.01 383.68, 1650.52 383.24, 1638.79 379.52 C 1608.68 369.99, 1573.93 364.11, 1547 364 C 1533.73 363.95, 1529.56 361.95, 1520.84 351.49 C 1504.4 331.77, 1473.77 306.13, 1455.38 296.69 L 1452.27 295.09 1450.77 298.91 M 1565.5 301.48 C 1563.85 302.37, 1561.94 303.83, 1561.25 304.73 C 1560.15 306.18, 1560 306.06, 1560 303.69 C 1560 301.1, 1559.8 301, 1554.5 301 L 1549 301 1548.85 310.75 C 1548.77 316.11, 1548.57 326.18, 1548.42 333.13 L 1548.13 345.76 1553.82 346.26 C 1556.94 346.53, 1559.84 346.55, 1560.25 346.32 C 1560.66 346.08, 1561 339.14, 1561 330.9 C 1561 316.32, 1561.07 315.84, 1563.45 313.45 C 1566.97 309.94, 1573.09 310.02, 1575.93 313.63 C 1577.81 316.03, 1578 317.61, 1578 331.13 C 1578 342.31, 1578.31 346.02, 1579.25 346.09 C 1579.94 346.15, 1582.53 346.26, 1585 346.34 L 1589.5 346.5 1589.5 328.32 C 1589.5 308.48, 1589.25 307.51, 1582.84 302.73 C 1579.29 300.08, 1569.46 299.37, 1565.5 301.48 M 1602.99 331.25 C 1602.98 332.49, 1602.72 334.42, 1602.42 335.55 C 1601.96 337.28, 1603.77 338.87, 1613.69 345.46 C 1620.18 349.79, 1629.94 356.74, 1635.37 360.91 C 1640.8 365.09, 1646.03 369.08, 1646.98 369.78 C 1648.49 370.89, 1649.06 370.61, 1651.31 367.66 L 1653.89 364.27 1651.2 361.78 C 1643.17 354.37, 1606.55 329, 1603.87 329 C 1603.39 329, 1602.99 330.01, 1602.99 331.25 M 1380.5 354 C 1377.12 354.37, 1375.81 354.76, 1377.5 354.89 C 1379.15 355.02, 1382.46 355.35, 1384.85 355.62 C 1387.24 355.9, 1388.95 355.73, 1388.66 355.26 C 1388.37 354.79, 1389.65 354.3, 1391.5 354.17 C 1394.62 353.96, 1394.9 354.19, 1395.27 357.22 C 1395.68 360.48, 1395.68 360.48, 1395.84 356.75 L 1396 353 1391.25 353.17 C 1388.64 353.26, 1383.8 353.63, 1380.5 354 M 1371.54 355.93 C 1371.23 356.44, 1371.38 357.12, 1371.88 357.43 C 1372.38 357.74, 1373.05 357.32, 1373.36 356.49 C 1373.99 354.87, 1372.48 354.41, 1371.54 355.93 M 1378.03 357.25 C 1378.01 358.21, 1377.55 359, 1377 359 C 1376.45 359, 1376 359.42, 1376 359.94 C 1376 360.46, 1376.9 360.71, 1378 360.5 C 1380.79 359.96, 1382.01 359.09, 1381.92 357.69 C 1381.87 356.88, 1381.67 356.92, 1381.32 357.8 C 1380.93 358.78, 1380.45 358.65, 1379.43 357.3 C 1378.15 355.61, 1378.06 355.61, 1378.03 357.25 M 1132 361.05 L 1132 365.1 1122.25 364.8 L 1112.5 364.5 1112.5 368 L 1112.5 371.5 1127.75 371.78 C 1136.14 371.93, 1143 372.38, 1142.99 372.78 C 1142.98 373.85, 1137.17 383.77, 1136.21 384.37 C 1135.76 384.65, 1133.47 382.43, 1131.13 379.44 C 1126.89 374.01, 1126.87 374, 1124.47 375.75 C 1121.23 378.11, 1121.32 378.51, 1126.52 385.12 L 1131.03 390.87 1123.02 396.17 C 1114.58 401.75, 1114.39 401.99, 1116.04 405.07 C 1117.59 407.97, 1119.09 407.51, 1127.46 401.5 C 1131.67 398.48, 1135.46 396, 1135.87 396 C 1136.29 396, 1137.92 397.35, 1139.5 399 C 1142.89 402.54, 1144.06 402.7, 1146.52 399.97 C 1148.32 397.99, 1148.28 397.87, 1144.64 394.14 L 1140.91 390.33 1144.44 385.09 C 1146.38 382.21, 1148.49 378.11, 1149.13 375.98 C 1150.2 372.38, 1150.58 372.08, 1154.39 371.8 C 1158.22 371.52, 1158.52 371.28, 1158.81 368.25 L 1159.13 365 1149.06 365 L 1139 365 1139 361 C 1139 357.1, 1138.92 357, 1135.5 357 C 1132.08 357, 1132 357.09, 1132 361.05 M 1364 366 C 1365.97 367.27, 1362.46 367.27, 1359.5 366 C 1357.67 365.21, 1357.71 365.14, 1360 365.09 C 1361.38 365.06, 1363.18 365.47, 1364 366 M 1670.52 367.29 C 1659.33 373.63, 1659.36 391.5, 1670.57 397.78 C 1671.96 398.56, 1671.64 399.55, 1668.16 405.25 C 1663.95 412.12, 1660 419.51, 1660 420.51 C 1660 420.83, 1662.78 420.96, 1666.19 420.8 L 1672.38 420.5 1678.25 410.75 C 1684.09 401.07, 1684.16 401, 1688.07 401 L 1692 401 1692 411 L 1692 421 1698 421 L 1704 421 1704 393 L 1704 365 1689.25 365.02 C 1675.81 365.03, 1674.15 365.23, 1670.52 367.29 M 1316.8 367.15 C 1315.31 367.69, 1313.81 369.02, 1313.47 370.1 C 1312.78 372.28, 1308.06 377, 1306.56 377 C 1306.04 377, 1306.99 375.54, 1308.68 373.75 C 1310.38 371.96, 1312.28 369.49, 1312.92 368.25 C 1313.7 366.71, 1314.93 366.02, 1316.79 366.08 L 1319.5 366.16 1316.8 367.15 M 1324.27 367.66 C 1323.59 367.93, 1322.24 367.95, 1321.27 367.69 C 1320.3 367.44, 1320.85 367.22, 1322.5 367.19 C 1324.15 367.17, 1324.95 367.38, 1324.27 367.66 M 1402 369.12 C 1392.96 372.73, 1388.95 385.12, 1394.26 393.1 C 1396.75 396.84, 1403.98 401, 1408 401 C 1411.67 401, 1419.02 397, 1421.44 393.68 C 1424.37 389.66, 1424.35 379.3, 1421.41 375.32 C 1416.95 369.31, 1408.38 366.58, 1402 369.12 M 1527.41 374.5 C 1529.36 377.47, 1529.18 377.5, 1522.88 375.27 C 1517 373.17, 1516.64 372, 1521.88 372 C 1524.93 372, 1526.13 372.54, 1527.41 374.5 M 1364.17 376.6 C 1370.95 378.59, 1377.29 380.44, 1378.25 380.72 C 1381.89 381.79, 1379.68 382.6, 1369.95 383.76 C 1338.54 387.52, 1299.07 401.13, 1269.25 418.48 C 1265.81 420.48, 1263 421.73, 1263 421.26 C 1263 419.31, 1276.95 392.88, 1282.02 385.23 C 1286.99 377.72, 1287.73 377.01, 1290 377.63 C 1291.38 378, 1294.3 378.63, 1296.5 379.03 C 1298.76 379.43, 1299.49 379.8, 1298.17 379.87 C 1296.08 379.99, 1295.91 380.33, 1296.55 383.25 C 1296.95 385.03, 1297.92 387.86, 1298.72 389.53 L 1300.17 392.57 1314.33 387.9 C 1322.13 385.32, 1334.46 381.71, 1341.75 379.87 C 1349.04 378.02, 1355 376.17, 1355 375.76 C 1355 375.34, 1354.66 375.07, 1354.25 375.16 C 1353.84 375.24, 1352.38 374.82, 1351 374.22 C 1345.77 371.93, 1352.12 373.08, 1364.17 376.6 M 1692 382.5 L 1692 391 1685.63 391 C 1676.03 391, 1671.04 385.86, 1674.22 379.23 C 1675.98 375.55, 1679.48 374.03, 1686.25 374.01 L 1692 374 1692 382.5 M 1484.89 383.51 C 1500.24 387.88, 1516.39 394.17, 1534.06 402.63 L 1547.7 409.17 1549.97 414.64 C 1551.21 417.64, 1551.99 420.34, 1551.69 420.64 C 1551.4 420.94, 1547.86 419.25, 1543.83 416.9 C 1522.7 404.56, 1488.51 391.54, 1464.39 386.65 C 1452.59 384.26, 1452.53 384.23, 1456.5 383.18 C 1458.7 382.6, 1462.08 381.69, 1464 381.15 C 1469.7 379.57, 1471.98 379.83, 1484.89 383.51 M 1155.19 385.75 C 1146.57 409.32, 1143 419.4, 1143 420.12 C 1143 420.61, 1144.78 421, 1146.96 421 C 1150.71 421, 1150.98 420.79, 1152.12 417 L 1153.32 413 1160.05 413 L 1166.78 413 1168.38 417 C 1169.88 420.74, 1170.25 421, 1173.99 421 C 1176.2 421, 1178 420.86, 1178 420.69 C 1178 420.52, 1175.08 412.11, 1171.5 402 C 1167.93 391.89, 1165 383.48, 1165 383.31 C 1165 383.14, 1163.02 383, 1160.6 383 C 1156.71 383, 1156.08 383.32, 1155.19 385.75 M 1164 404.75 C 1164 404.89, 1162.22 405, 1160.05 405 L 1156.1 405 1157.4 401.75 C 1158.12 399.96, 1159.03 397.6, 1159.43 396.5 C 1160.04 394.84, 1160.49 395.35, 1162.08 399.5 C 1163.14 402.25, 1164 404.61, 1164 404.75 M 1386.33 410.02 C 1317.09 416.76, 1255.05 451.07, 1213.94 505.38 C 1171.6 561.32, 1154.16 631.77, 1166.08 698.73 C 1178.44 768.13, 1219.8 829.48, 1279.71 867.25 C 1376.89 928.53, 1502.17 912.85, 1583.04 829.31 C 1640.69 769.76, 1665.06 687.68, 1648.91 607.5 C 1629.8 512.61, 1557.51 437.83, 1463.5 415.69 C 1440.32 410.23, 1408.32 407.88, 1386.33 410.02 M 1624 418.05 C 1624 420.83, 1617.54 423.69, 1615.35 421.88 C 1614.13 420.86, 1613.07 421.46, 1609.24 425.28 C 1604.75 429.78, 1604.66 429.97, 1606.4 431.89 C 1608.53 434.24, 1607.81 437.49, 1604.81 439.1 C 1603.15 439.99, 1602.86 440.89, 1603.25 443.85 C 1603.7 447.15, 1603.51 447.51, 1601.33 447.65 C 1594.21 448.08, 1586.77 457.46, 1586.77 466 C 1586.77 482.97, 1609.51 491.69, 1619.52 478.57 C 1622.73 474.35, 1622.68 474.1, 1618.02 470.23 L 1614.08 466.95 1612.49 470.02 C 1609.74 475.33, 1604.7 476.3, 1600.08 472.41 C 1594.93 468.08, 1596.31 460.39, 1602.83 457.04 C 1604.88 455.99, 1605.07 455.38, 1604.48 451.85 C 1603.82 447.97, 1603.86 447.89, 1605.94 449.18 C 1607.47 450.12, 1607.92 451.14, 1607.52 452.75 C 1606.82 455.56, 1615.91 465.35, 1618.35 464.42 C 1620.79 463.48, 1624 465.82, 1624 468.54 C 1624 470.79, 1624.38 471, 1628.5 471 C 1632.61 471, 1633 470.79, 1633 468.54 C 1633 464.87, 1640.43 461.58, 1643.87 463.73 C 1646.07 465.1, 1646.43 465.02, 1648.78 462.67 C 1651.22 460.24, 1651.25 460.03, 1649.66 457.61 C 1647.62 454.49, 1649.1 450.27, 1652.39 449.8 C 1655.53 449.35, 1655.59 438.66, 1652.45 438.21 C 1649.64 437.8, 1647.66 432.54, 1649.3 429.83 C 1650.35 428.09, 1650.01 427.43, 1646.5 424.41 C 1643.64 421.96, 1641.86 421.13, 1640.25 421.51 C 1636.27 422.45, 1633 421.04, 1633 418.39 C 1633 416.22, 1632.58 416, 1628.5 416 C 1624.63 416, 1624 416.29, 1624 418.05 M 1709.68 429.55 L 1705.87 432.16 1708.42 435.33 C 1709.83 437.07, 1715.02 444.49, 1719.96 451.81 L 1728.95 465.13 1726.52 468.81 C 1719.95 478.81, 1721.76 490.36, 1731.17 498.41 L 1735.39 502.02 1734.12 509.54 C 1731.42 525.62, 1720.98 563.06, 1719.22 562.96 C 1718.82 562.94, 1716.39 561.03, 1713.8 558.71 L 1709.11 554.5 1707.05 532 C 1704.92 508.72, 1701.6 486.2, 1700.07 484.67 C 1698.88 483.48, 1692.99 484.87, 1693.02 486.33 C 1693.03 486.97, 1694.15 494.7, 1695.51 503.5 C 1699.07 526.63, 1698.91 527.45, 1693.16 515.49 C 1684.89 498.3, 1660.71 460, 1658.13 460 C 1657.7 460, 1656.3 461.12, 1655.01 462.49 L 1652.68 464.97 1658.59 473.5 C 1667.37 486.16, 1672.97 495.19, 1680 508 C 1686.03 519.01, 1698.13 545.15, 1697.49 545.82 C 1697.32 546, 1694.73 544.52, 1691.73 542.52 C 1686.63 539.14, 1686 538.25, 1682.01 528.9 C 1677.89 519.26, 1668.62 502.31, 1660.32 489.24 L 1656.35 482.98 1648.92 488.13 C 1644.84 490.96, 1641.1 493.63, 1640.61 494.07 C 1640.12 494.52, 1641.93 498.33, 1644.7 502.69 C 1649.96 510.93, 1657 522.85, 1657 523.48 C 1657 523.69, 1654.51 522.85, 1651.47 521.61 C 1646.16 519.45, 1645.61 518.85, 1637 505.93 C 1623.89 486.27, 1625.12 487.5, 1620.66 489.63 C 1616.27 491.72, 1616.26 491.67, 1623.46 501.4 C 1648.19 534.84, 1666.37 581.53, 1671.13 623.81 L 1672.29 634.13 1676.39 633.45 C 1678.65 633.08, 1680.64 632.64, 1680.82 632.48 C 1681.35 632, 1678.02 609.3, 1675.92 599.11 C 1671.98 579.98, 1662.27 551.44, 1654.36 535.75 C 1651.55 530.18, 1651.43 530.25, 1658.35 533.65 C 1663.66 536.25, 1663.82 536.46, 1667.88 546.06 C 1675.01 562.91, 1683.04 590.67, 1686.41 610.1 C 1688.52 622.27, 1688.57 626.05, 1686.67 629.7 C 1684.53 633.8, 1684.49 633.65, 1687.96 634.34 C 1695.16 635.78, 1702.2 646.08, 1702.41 655.46 C 1702.5 659.64, 1702.64 659.84, 1706 660.4 C 1707.93 660.72, 1711.19 660.98, 1713.25 660.99 L 1717 661 1717 669.15 C 1717 677.76, 1714.28 704.06, 1713.05 707.4 C 1712.46 709, 1711.62 707.99, 1708.54 701.93 C 1703.77 692.53, 1700.85 687.42, 1694.8 677.88 L 1689.97 670.26 1692.47 665.88 C 1700.71 651.46, 1687.54 635.15, 1672.67 641.36 C 1665.74 644.26, 1660.96 653.58, 1662.87 660.49 C 1664.87 667.73, 1672.13 673.91, 1678.71 673.98 C 1680.58 674, 1681.29 675.18, 1683.37 681.77 C 1687.13 693.68, 1687.25 695.56, 1685.09 708 C 1682.16 724.82, 1676.76 743.41, 1669.71 761 L 1663.5 776.5 1658.08 779.25 C 1655.1 780.76, 1652.51 781.84, 1652.32 781.66 C 1652.14 781.47, 1654.18 776.64, 1656.86 770.91 C 1668.14 746.81, 1677.65 712.64, 1679.61 689.12 L 1680.29 681 1677.73 681 C 1676.32 681, 1674.51 680.75, 1673.72 680.45 C 1672.57 680.01, 1672.03 681.79, 1671.09 689.12 C 1662.18 758.62, 1626.56 821.68, 1571 866.33 C 1543.73 888.24, 1507.44 906.36, 1473.5 915 C 1459.15 918.66, 1440.28 922, 1433.97 922 C 1431.12 922, 1431 922.18, 1431 926.5 C 1431 931.88, 1431.08 931.9, 1447.87 929.46 C 1479.87 924.8, 1521.52 909.96, 1546.11 894.43 C 1548.36 893.01, 1550.39 892.06, 1550.64 892.3 C 1550.88 892.55, 1549.98 895.25, 1548.63 898.29 L 1546.18 903.84 1530.84 911.33 C 1508.28 922.35, 1487.06 929.67, 1463.68 934.52 C 1456.05 936.1, 1454.18 936.17, 1449.85 935.06 C 1445.17 933.86, 1444.75 933.91, 1443.42 935.82 C 1442.39 937.28, 1440.35 938.06, 1436.24 938.57 C 1431.07 939.22, 1430.11 939.74, 1426.54 943.79 C 1421.66 949.33, 1416.13 951.95, 1409.25 951.98 L 1404 952 1404 960.13 L 1404 968.26 1392.75 967.57 C 1380.77 966.84, 1358.34 963.86, 1346.61 961.45 C 1336.13 959.29, 1310 951.79, 1310 950.94 C 1310 950.54, 1313.49 949.91, 1317.75 949.54 C 1324.3 948.98, 1326.98 949.27, 1335.02 951.43 C 1346.45 954.49, 1370.15 958.54, 1382.25 959.49 L 1391 960.18 1391 952.31 C 1391 941.99, 1389.88 940.35, 1382.24 939.51 C 1369.8 938.14, 1369.67 937.98, 1378.5 935.02 L 1386.5 932.33 1386.5 927.5 L 1386.5 922.66 1370.98 920.43 C 1326.7 914.07, 1286.56 897.44, 1251.16 870.79 C 1239.89 862.3, 1239.01 861.9, 1238.99 865.25 C 1238.98 866.49, 1238.71 868.46, 1238.4 869.64 C 1237.93 871.4, 1239.19 872.82, 1245.66 877.76 C 1252.99 883.36, 1253.61 884.13, 1255.19 889.6 C 1256.11 892.82, 1256.74 895.59, 1256.58 895.75 C 1256.42 895.91, 1251.52 892.49, 1245.68 888.14 L 1235.08 880.23 1233.9 883.81 C 1233.25 885.78, 1230.69 889.56, 1228.21 892.21 C 1225.73 894.86, 1223.88 897.17, 1224.1 897.34 C 1237.82 907.87, 1252.88 917.86, 1264.32 924.04 C 1270.71 927.48, 1272.81 929.25, 1275.73 933.64 C 1277.69 936.61, 1279.12 939.2, 1278.9 939.42 C 1277.58 940.68, 1240.11 918.21, 1224.54 906.82 C 1215.67 900.33, 1215.82 900.38, 1211.12 902.89 L 1207.74 904.69 1216.12 911.15 C 1231.64 923.12, 1241.56 929.58, 1258 938.4 L 1266.5 942.97 1262 942.98 C 1247.51 943.03, 1215.42 937.57, 1193.72 931.37 C 1186.7 929.36, 1180.78 927.89, 1180.56 928.11 C 1180.35 928.32, 1179.87 930.15, 1179.49 932.18 L 1178.81 935.85 1187.15 938.5 C 1213.56 946.86, 1238.06 950.88, 1267.68 951.7 L 1288.87 952.29 1291.91 956.52 C 1297.11 963.77, 1318.77 985.65, 1328.35 993.34 C 1340.66 1003.22, 1364.48 1018.95, 1365.45 1017.84 C 1365.98 1017.23, 1369 1011.11, 1369 1010.64 C 1369 1010.39, 1365.29 1008.01, 1360.75 1005.35 C 1344.95 996.09, 1323.11 978.29, 1311.34 965.07 C 1307.96 961.28, 1307.1 959.81, 1308.5 960.22 C 1309.6 960.53, 1316.09 962.42, 1322.92 964.42 C 1378.38 980.63, 1445.88 979.57, 1504.25 961.56 C 1506.86 960.76, 1509 960.46, 1509 960.91 C 1509 962.56, 1486.23 983.71, 1477 990.64 C 1469.3 996.42, 1457.21 1004.42, 1448.11 1009.76 C 1446.96 1010.44, 1447.02 1011.14, 1448.49 1014.04 C 1449.46 1015.94, 1450.39 1017.66, 1450.56 1017.85 C 1450.73 1018.04, 1455.11 1015.7, 1460.3 1012.64 C 1479.04 1001.61, 1499.52 984.69, 1515.22 967.25 L 1522.98 958.64 1540.26 958.38 C 1567.98 957.97, 1591.53 954.88, 1615.77 948.49 C 1630.24 944.67, 1630.74 944.34, 1628.56 940.11 C 1626.66 936.44, 1626.52 936.42, 1617.5 939 C 1597.67 944.68, 1571.74 948.52, 1545.82 949.63 L 1529.56 950.33 1531.18 947.85 C 1532.07 946.48, 1535.39 941.35, 1538.54 936.43 C 1541.7 931.52, 1545.86 925.15, 1547.78 922.28 C 1549.9 919.12, 1553.5 910.6, 1556.89 900.69 L 1562.5 884.32 1573.5 875.51 C 1602.47 852.31, 1623.94 828.79, 1639.9 802.76 C 1645.29 793.96, 1645.14 794.09, 1654.92 790.22 C 1656.82 789.46, 1648.62 804.77, 1641.09 816.03 L 1635.09 825 1638.79 825.03 C 1640.83 825.04, 1645.65 826.13, 1649.5 827.44 C 1653.35 828.75, 1656.6 829.73, 1656.72 829.6 C 1658.92 827.45, 1677.19 794.87, 1681.09 786.16 C 1685.96 775.29, 1686.77 774.09, 1691.29 771.1 C 1693.98 769.32, 1696.34 768.01, 1696.53 768.19 C 1697.96 769.63, 1678.64 808.65, 1669.14 823.5 L 1662.11 834.5 1665.04 837.46 C 1667.9 840.36, 1668 840.39, 1669.46 838.46 C 1672.73 834.16, 1684.72 814, 1690.21 803.56 L 1696.03 792.5 1695.42 798 C 1692.42 825.37, 1685.36 855.74, 1676.54 879.18 L 1673.18 888.12 1675.46 888.99 C 1681.11 891.13, 1681.27 891.01, 1684.83 881.5 C 1696.15 851.32, 1703.44 814.57, 1705.48 777.5 C 1706.41 760.54, 1706.4 760.57, 1713.34 754.96 C 1716.69 752.25, 1719.76 750.36, 1720.16 750.77 C 1721.47 752.1, 1728.84 778.7, 1731.37 791.21 C 1735.69 812.65, 1735.68 811.42, 1731.56 813.96 C 1726.74 816.94, 1723 823.6, 1722.29 830.47 C 1721.78 835.39, 1722.09 836.77, 1724.95 842.41 L 1728.19 848.78 1721.93 858.64 C 1714.43 870.45, 1706.47 881.47, 1699.92 889.11 L 1695.11 894.71 1698.56 898.06 C 1701.57 900.98, 1702.2 901.22, 1703.42 899.96 C 1706.56 896.69, 1724.87 870.64, 1730 862.14 L 1735.5 853.02 1740.67 853.62 C 1747.27 854.37, 1752.15 852.76, 1757.29 848.13 C 1766.63 839.7, 1767.48 827.87, 1759.48 817.39 L 1757.03 814.17 1762.38 800.84 C 1773.05 774.24, 1779.82 750.33, 1784.49 722.67 C 1787.97 702.09, 1787.97 702, 1783.02 702 C 1779.68 702, 1778.97 702.37, 1778.61 704.25 C 1778.37 705.49, 1777.2 712.52, 1776 719.88 C 1771.84 745.45, 1764.95 770.09, 1754.82 795.59 C 1749.16 809.82, 1748.68 810.66, 1746.4 810.23 C 1743.76 809.72, 1743.85 809.96, 1741.49 796.5 C 1739.52 785.31, 1734.08 764.4, 1730.04 752.53 L 1726.98 743.57 1733.32 737.03 C 1748.47 721.41, 1763.03 702.29, 1760.87 700.85 C 1754.47 696.55, 1754.9 696.38, 1748.21 705.87 C 1743.04 713.18, 1725.95 732.91, 1724.04 733.76 C 1723.73 733.9, 1722.41 731.34, 1721.11 728.08 L 1718.76 722.14 1720.88 710.82 C 1724.07 693.78, 1724.96 682.62, 1724.98 659.42 C 1725 635.66, 1723.93 622.44, 1720.43 603.32 L 1718.01 590.14 1720.15 584.57 C 1721.32 581.51, 1722.63 579, 1723.05 579 C 1724.54 579, 1739.24 595.58, 1747.22 606.25 C 1751.64 612.16, 1755.63 617, 1756.08 617 C 1757.92 617, 1762 614.6, 1762 613.52 C 1762 610.23, 1747.09 591.02, 1734.65 578.29 L 1726.62 570.08 1730.25 559.29 C 1734.75 545.92, 1739.37 528.35, 1741.52 516.5 C 1742.41 511.55, 1743.34 506.49, 1743.59 505.25 C 1743.9 503.68, 1744.75 503, 1746.39 503 C 1752.14 503, 1769.1 554.37, 1775.48 591.17 C 1776.95 599.6, 1778.34 607.51, 1778.59 608.75 C 1778.96 610.63, 1779.69 611, 1783.02 611 C 1786.99 611, 1787 610.99, 1787 607.07 C 1787 591.58, 1774.71 543.76, 1763.4 515.22 L 1756.95 498.95 1759.85 495.22 C 1771.67 480.06, 1761.48 459.13, 1742.78 460.17 L 1736.81 460.5 1727.48 446.5 C 1722.34 438.8, 1717.09 431.25, 1715.82 429.72 L 1713.5 426.94 1709.68 429.55 M 1636.6 435.4 C 1646 444.8, 1634.83 459.62, 1622.97 453.48 C 1612.51 448.08, 1616.65 432, 1628.5 432 C 1632.51 432, 1633.7 432.5, 1636.6 435.4 M 1414.11 434 C 1425.74 436.15, 1440.26 445.86, 1451.9 459.25 C 1454.65 462.42, 1457.29 465.7, 1457.76 466.54 C 1458.53 467.91, 1459.9 467.9, 1471.06 466.45 C 1477.9 465.56, 1483.65 464.68, 1483.84 464.49 C 1484.44 463.89, 1476.41 452.67, 1471.38 447.08 C 1466.58 441.73, 1466.55 441.67, 1469.5 442.41 C 1481.99 445.53, 1511.27 458.88, 1525.43 467.91 C 1536.6 475.03, 1536.77 475.35, 1528.83 474.54 C 1518.79 473.51, 1488.76 473.77, 1478 474.97 C 1430.7 480.26, 1382.75 496.92, 1345.62 520.97 L 1336.17 527.1 1334.5 536.8 C 1330.61 559.49, 1330.63 558.25, 1334.22 555.61 C 1335.48 554.7, 1342.45 549.94, 1349.72 545.05 C 1408.46 505.48, 1481.72 488.29, 1543.32 499.61 L 1552.2 501.25 1545.35 508.2 C 1541.58 512.02, 1532.82 520.52, 1525.87 527.07 L 1513.25 539 1511.06 529.75 C 1509.86 524.66, 1507.63 517.13, 1506.1 513 L 1503.32 505.5 1491.91 505.85 C 1485.63 506.04, 1480.2 506.39, 1479.83 506.61 C 1479.45 506.84, 1480.27 509.78, 1481.63 513.14 C 1485.17 521.84, 1490.57 541.14, 1492.05 550.33 L 1493.3 558.16 1484.54 566.96 L 1475.77 575.77 1467 569.84 C 1456.88 563, 1446.13 558.21, 1433.43 554.88 C 1420.41 551.47, 1394.44 551.43, 1382 554.81 C 1370.9 557.82, 1355.2 565.38, 1346.83 571.73 L 1340.17 576.79 1330.95 567.39 L 1321.73 557.99 1322.39 552.3 C 1328.62 499.34, 1366.45 441.86, 1400 434.39 C 1407.05 432.82, 1407.67 432.8, 1414.11 434 M 1189.29 443.19 L 1191.2 445.75 1186.83 450.12 C 1169.94 467.03, 1148.97 497.84, 1137.4 522.77 C 1134.4 529.22, 1131.4 535.59, 1130.73 536.93 C 1129.44 539.48, 1120.28 546.62, 1119.41 545.75 C 1118.01 544.34, 1136.62 506.05, 1146.36 490.31 C 1157.74 471.92, 1183.7 439.4, 1186.31 440.27 C 1186.9 440.47, 1188.24 441.78, 1189.29 443.19 M 1346.26 444.25 C 1345.73 444.94, 1342.94 448.43, 1340.07 452 C 1324.75 471.11, 1311.13 499.23, 1304.6 525.21 L 1301.4 537.92 1279.49 515.99 L 1257.59 494.07 1260.04 491.44 C 1273.8 476.7, 1307.82 456.12, 1333.5 447.01 C 1345.45 442.77, 1347.83 442.25, 1346.26 444.25 M 1206.48 447.39 C 1198.27 450.97, 1194.19 460.96, 1197.45 469.51 C 1202.4 482.47, 1219.07 484.64, 1227.62 473.44 C 1231.58 468.24, 1231.76 459.21, 1228 453.66 C 1223.51 447.04, 1213.8 444.21, 1206.48 447.39 M 1267.15 536.67 L 1291.9 561.35 1284.7 569.27 C 1267.9 587.77, 1248.95 613.42, 1247.32 619.88 C 1246.72 622.27, 1255.51 646, 1257 646 C 1257.39 646, 1261.39 639.79, 1265.89 632.19 C 1270.39 624.6, 1277.31 614.06, 1281.28 608.77 C 1288.71 598.87, 1306.76 578, 1307.91 578 C 1308.26 578, 1312.04 581.51, 1316.3 585.8 L 1324.05 593.6 1319.06 601.91 C 1301.64 630.89, 1299.15 667.51, 1312.45 699 C 1314.43 703.68, 1316.82 708.48, 1317.77 709.67 L 1319.5 711.83 1326.87 704.98 L 1334.24 698.12 1331.2 690.81 C 1325.6 677.31, 1324.57 671.84, 1324.62 656 C 1324.68 639.12, 1326.97 629.54, 1334.32 615.5 C 1339.91 604.81, 1356.02 588.44, 1367 582.3 C 1394.2 567.1, 1425.87 567.95, 1452.71 584.61 C 1460.78 589.63, 1460.78 588.29, 1452.73 595.88 L 1449.14 599.25 1445.51 597 C 1439.32 593.18, 1432.54 590.2, 1425.88 588.37 C 1417.14 585.98, 1398.83 585.99, 1390 588.4 C 1367.77 594.47, 1349.39 612.26, 1341.35 635.5 C 1338.89 642.61, 1338.58 644.94, 1338.55 656.5 C 1338.52 670.8, 1340.28 678.67, 1346.09 690.19 C 1347.69 693.35, 1349 696.11, 1349 696.31 C 1349 697.06, 1243.05 799, 1242.3 798.97 C 1240.79 798.91, 1235.16 790.5, 1233.08 785.21 C 1226.14 767.56, 1226.31 734.05, 1233.5 704.23 L 1235.97 693.95 1230.12 683.73 C 1226.9 678.1, 1223.59 672.18, 1222.76 670.57 C 1220.85 666.85, 1220.57 667.33, 1215.17 683.55 C 1209.57 700.38, 1205.04 724.47, 1204.97 737.82 C 1204.93 744.73, 1204.38 743.9, 1199.72 730 C 1183.27 680.86, 1183.08 633.25, 1199.16 584.63 C 1204.26 569.21, 1204.93 568.08, 1204.97 574.76 C 1205.08 594.09, 1214.14 628.7, 1226.04 655.3 C 1238.92 684.05, 1261.92 717.88, 1281.91 737.47 L 1288.01 743.45 1295.93 735.57 L 1303.85 727.7 1294.78 717.6 C 1257.52 676.12, 1235.7 631.67, 1229.55 584.69 C 1226.63 562.45, 1228.01 537.89, 1232.9 525.02 C 1234.66 520.4, 1240.39 512, 1241.79 512 C 1242.13 512, 1253.54 523.1, 1267.15 536.67 M 1577.94 516.92 C 1590.26 532.48, 1592.22 572, 1582.54 609.88 L 1580.14 619.26 1585.21 628.38 C 1588 633.4, 1591.1 639.41, 1592.1 641.75 C 1593.11 644.09, 1594.13 646, 1594.38 646 C 1595.3 646, 1601.17 629.26, 1603.99 618.58 C 1608.03 603.24, 1610.08 591.47, 1610.84 579.07 L 1611.5 568.5 1615.33 579 C 1633.71 629.42, 1634.1 680.45, 1616.47 731 C 1611.74 744.57, 1611.07 745.67, 1611.03 739.97 C 1610.8 706.28, 1592.3 654.06, 1567.45 617 C 1559.2 604.69, 1541.85 583.12, 1534.17 575.6 L 1528.15 569.71 1520.07 577 C 1515.63 581, 1512 584.47, 1512 584.69 C 1512 584.91, 1515.71 589.01, 1520.25 593.81 C 1563.21 639.22, 1588.26 697.25, 1588.32 751.5 C 1588.34 771.49, 1586.9 779.6, 1581.47 789.92 C 1574.81 802.59, 1577.52 803.74, 1549.76 776.45 C 1536.42 763.33, 1525.2 752.11, 1524.82 751.52 C 1524.45 750.93, 1529.08 745.12, 1535.15 738.57 C 1547.38 725.35, 1554.74 716.03, 1563.81 702.2 C 1569.28 693.87, 1569.81 692.63, 1568.89 690.2 C 1563.02 674.76, 1559.7 667, 1558.94 667 C 1558.45 667, 1557.07 668.91, 1555.88 671.25 C 1548.86 685.06, 1531.21 709.16, 1515.6 726.27 L 1507.59 735.05 1499.87 727.38 L 1492.16 719.7 1496.08 713.5 C 1511.96 688.35, 1516.61 657.63, 1508.96 628.5 C 1506.79 620.26, 1498.21 600.73, 1496.97 601.22 C 1496.59 601.37, 1493.07 604.49, 1489.14 608.14 L 1482 614.77 1484.98 621.14 C 1502.61 658.83, 1489.36 704.69, 1454.27 727.39 C 1425.26 746.16, 1385.54 745.25, 1359.22 725.21 L 1355.94 722.71 1361.16 718.04 L 1366.38 713.36 1372.61 717.14 C 1396.76 731.81, 1431.02 729.21, 1452.83 711.06 C 1477.94 690.16, 1485.28 654.52, 1470.63 624.59 L 1466.33 615.82 1499.89 583.66 C 1518.35 565.97, 1542.42 542.84, 1553.38 532.25 C 1564.34 521.66, 1573.65 513, 1574.07 513 C 1574.49 513, 1576.23 514.76, 1577.94 516.92 M 1158.63 543.56 C 1146.06 571.76, 1141.51 588.53, 1135.2 630 L 1134.36 635.5 1131.98 628 C 1128.89 618.29, 1129.09 613.75, 1133.42 594.37 C 1137.42 576.45, 1142.65 560.15, 1149.05 545.61 C 1153.27 536.03, 1153.57 535.64, 1158.41 533.4 C 1161.16 532.13, 1163.54 531.2, 1163.68 531.35 C 1163.83 531.5, 1161.56 536.99, 1158.63 543.56 M 1705.68 573.58 L 1709.86 587.34 1707.12 592.76 L 1704.37 598.19 1702.09 587.85 C 1700.22 579.4, 1694.77 560.81, 1692.17 554.01 C 1691.86 553.18, 1693.83 554.15, 1696.55 556.16 C 1701.49 559.81, 1701.51 559.83, 1705.68 573.58 M 1122.28 559.8 C 1120.3 565.99, 1119 566.49, 1119 561.06 C 1119 558.13, 1119.57 556.72, 1121.19 555.58 C 1124.13 553.52, 1124.2 553.79, 1122.28 559.8 M 1101.94 574.25 C 1101.88 577.29, 1101.81 577.35, 1100.93 575.16 C 1100.42 573.87, 1100.25 572.41, 1100.56 571.91 C 1101.58 570.25, 1102 570.96, 1101.94 574.25 M 1114.08 590 C 1115.18 597.43, 1116.33 605.08, 1116.62 607 C 1117.15 610.47, 1117.13 610.46, 1114.2 605.5 C 1112.58 602.75, 1110.22 598.08, 1108.95 595.13 C 1106.51 589.43, 1106.72 586.02, 1110.21 574.5 C 1111.41 570.54, 1111.43 570.53, 1111.75 573.5 C 1111.92 575.15, 1112.97 582.58, 1114.08 590 M 1714.36 617 C 1715.26 623.88, 1716.29 634.34, 1716.65 640.25 L 1717.3 651 1713.15 651 L 1709 651 1708.98 642.25 C 1708.97 637.44, 1708.34 628.81, 1707.58 623.07 L 1706.2 612.64 1708.81 607.32 C 1712.03 600.75, 1712.3 601.22, 1714.36 617 M 1423.12 614.93 C 1444.49 622.96, 1456.29 646.11, 1450.45 668.54 C 1444.97 689.56, 1422.94 703.77, 1401.36 700.19 C 1365.98 694.33, 1351.96 650.52, 1377.45 625.5 C 1390.23 612.96, 1407.34 609, 1423.12 614.93 M 1028.52 623.97 C 1028.19 624.5, 1028.22 627.2, 1028.59 629.97 L 1029.26 635 1015.63 635 L 1002 635 1002 640 L 1002 645 1023.5 645 C 1035.33 645, 1045 645.27, 1045 645.6 C 1045 647.11, 1037.63 660.03, 1035.84 661.64 C 1033.91 663.39, 1033.79 663.37, 1031.88 660.97 C 1030.79 659.61, 1028.52 656.11, 1026.83 653.19 C 1024.74 649.6, 1023.27 648.06, 1022.29 648.44 C 1021.49 648.75, 1019.52 649, 1017.92 649 C 1015.96 649, 1015 649.51, 1015 650.53 C 1015 652.99, 1019.53 661.25, 1023.45 665.95 L 1027.07 670.27 1021.06 673.96 C 1017.76 675.99, 1012.45 678.51, 1009.28 679.55 C 1006.1 680.58, 1003.38 681.49, 1003.24 681.57 C 1002.8 681.78, 1008.13 691, 1008.69 691 C 1010.1 691, 1026.4 682.82, 1030.22 680.19 L 1034.59 677.18 1037.05 679.15 C 1040.33 681.79, 1056.93 690, 1058.98 690 C 1059.91 690, 1061.52 688.1, 1062.76 685.56 L 1064.91 681.13 1061.21 679.94 C 1055.84 678.23, 1043.88 671.86, 1043.33 670.42 C 1043.07 669.75, 1044.45 667.12, 1046.39 664.57 C 1049.89 660, 1056 648.24, 1056 646.11 C 1056 645.43, 1058.16 645, 1061.55 645 L 1067.11 645 1066.8 640.25 L 1066.5 635.5 1053.29 635.22 L 1040.09 634.94 1038.91 628.97 L 1037.74 623 1033.43 623 C 1031.06 623, 1028.85 623.44, 1028.52 623.97 M 1770.42 624.48 C 1770.24 625.04, 1769.95 626.85, 1769.79 628.5 L 1769.5 631.5 1761.2 631.79 L 1752.89 632.08 1753.2 636.79 L 1753.5 641.5 1760.64 641.16 C 1768.73 640.77, 1769.31 641.2, 1768.41 646.87 C 1767.9 650.03, 1767.17 651.1, 1764.88 652.05 C 1761.17 653.59, 1754.58 659.97, 1752.44 664.11 C 1749.53 669.73, 1749.41 677.92, 1752.17 681.97 C 1755.94 687.49, 1760.27 688.05, 1771.75 684.47 C 1773.44 683.94, 1774 684.17, 1774 685.38 C 1774 687.55, 1775.59 687.42, 1779.63 684.92 C 1782.43 683.19, 1782.89 682.42, 1782.37 680.34 C 1781.88 678.37, 1782.49 677.08, 1785.31 674.17 C 1788.43 670.96, 1795.28 660.67, 1796.26 657.73 C 1796.78 656.16, 1801.51 659.63, 1802.85 662.56 C 1806.59 670.78, 1801.47 677.83, 1788.75 681.94 C 1784.36 683.36, 1784.39 683.28, 1787.08 687.63 C 1789.53 691.6, 1790.14 691.67, 1797.63 688.86 C 1809.7 684.35, 1816.15 674.47, 1813.9 663.96 C 1812.63 658.04, 1810.09 654.65, 1804.08 650.84 C 1801.57 649.25, 1799.52 647.21, 1799.51 646.31 C 1799.5 645.36, 1798.06 644.18, 1796 643.46 C 1792.91 642.38, 1792.32 642.45, 1791 644.09 C 1790.01 645.31, 1787.54 646.17, 1783.75 646.61 L 1778 647.28 1778 644.32 L 1778 641.37 1791.01 640.15 C 1807.45 638.61, 1806.92 638.84, 1806.26 633.68 C 1805.58 628.38, 1806.17 628.71, 1799.35 629.89 C 1796.13 630.45, 1790.19 631.22, 1786.14 631.6 L 1778.78 632.28 1779.46 628.25 L 1780.14 624.21 1775.45 623.84 C 1772.82 623.63, 1770.61 623.91, 1770.42 624.48 M 1786 655.83 C 1786 656.9, 1780.1 665.82, 1778.91 666.56 C 1778.41 666.87, 1778 664.66, 1778 661.63 C 1778 657.25, 1778.35 656.05, 1779.75 655.69 C 1782.78 654.9, 1786 654.97, 1786 655.83 M 1107.39 675.75 C 1107.78 683.86, 1108.45 692.59, 1108.87 695.14 C 1109.54 699.11, 1109.26 700.54, 1106.95 705.1 L 1104.25 710.42 1103.11 703.46 C 1101.33 692.6, 1100.04 678.29, 1100.02 669.25 L 1100 661 1103.34 661 L 1106.69 661 1107.39 675.75 M 1769.13 668.08 C 1769.79 674.82, 1769.48 675.49, 1765.25 676.62 C 1759.19 678.23, 1758.21 671.35, 1763.5 664.41 C 1767.13 659.66, 1768.38 660.48, 1769.13 668.08 M 1707.96 732.02 C 1706.83 736.14, 1705.61 740.4, 1705.24 741.5 C 1704.23 744.49, 1703.2 734.51, 1703.18 721.5 L 1703.16 710.5 1706.58 717.52 L 1710 724.55 1707.96 732.02 M 1111.87 734.5 C 1111.93 740.16, 1111.85 740.36, 1110.52 738 C 1107.34 732.34, 1106.62 726.17, 1108.63 721.69 L 1110.5 717.53 1111.15 723.01 C 1111.51 726.03, 1111.83 731.2, 1111.87 734.5 M 1123.48 758.85 C 1123.29 759.04, 1121.61 758.04, 1119.75 756.62 C 1116.6 754.22, 1116.29 753.46, 1115.23 745.5 C 1113.43 732.04, 1114.83 732.23, 1119.58 746.1 C 1121.91 752.92, 1123.67 758.66, 1123.48 758.85 M 1346.33 740.36 C 1380.71 768.08, 1434.38 767.84, 1471.78 739.81 L 1476.06 736.6 1485.03 745.53 C 1495.44 755.89, 1495.14 754.64, 1491.54 772.4 C 1479.45 832.09, 1436.02 884.81, 1403.74 878.95 C 1388.92 876.26, 1374.08 865.89, 1360.49 848.73 L 1357.5 844.95 1344.75 846.16 C 1337.74 846.83, 1332 847.69, 1332 848.08 C 1332 849.04, 1340.31 860.35, 1345.72 866.75 C 1348.16 869.64, 1349.94 872, 1349.67 872 C 1347.46 872, 1326.09 863.68, 1316.28 858.99 C 1304.99 853.61, 1281.41 839.26, 1282.33 838.34 C 1282.55 838.12, 1288.98 838.44, 1296.62 839.06 C 1351.35 843.49, 1417.09 825.78, 1470.13 792.33 C 1478.63 786.98, 1478.79 786.79, 1480.32 781.19 C 1482.83 772.04, 1484.18 763.78, 1483.83 759.81 L 1483.5 756.13 1472 763.93 C 1408.38 807.1, 1342.28 823.67, 1275.12 813.29 L 1263.73 811.53 1283.11 792.87 L 1302.49 774.21 1304.68 782.46 C 1305.89 787, 1308.14 794.49, 1309.69 799.11 L 1312.5 807.5 1323.81 807.36 C 1330.03 807.28, 1335.35 806.98, 1335.64 806.7 C 1335.92 806.41, 1334.58 801.3, 1332.66 795.34 C 1328.33 781.94, 1325.64 771.72, 1323.95 762.19 L 1322.66 754.88 1331.56 745.94 C 1336.45 741.02, 1340.84 737, 1341.31 737 C 1341.78 737, 1344.04 738.51, 1346.33 740.36 M 1716.33 739.43 C 1716.63 740.21, 1716.23 741.39, 1715.44 742.05 C 1714.25 743.04, 1714 742.79, 1714 740.62 C 1714 737.81, 1715.43 737.08, 1716.33 739.43 M 1103 741.62 C 1103 742.44, 1102.55 742.84, 1102 742.5 C 1101.45 742.16, 1101 741.21, 1101 740.38 C 1101 739.56, 1101.45 739.16, 1102 739.5 C 1102.55 739.84, 1103 740.79, 1103 741.62 M 1696.93 753.6 C 1696.99 756.35, 1693.74 761.09, 1692.59 759.91 C 1692.37 759.68, 1692.93 756.68, 1693.83 753.24 C 1695.51 746.81, 1696.78 746.96, 1696.93 753.6 M 1537.41 797.14 L 1559.1 818.29 1556.3 821.24 C 1541.97 836.35, 1506.74 857.91, 1481 867.31 C 1465.62 872.92, 1466.1 873.05, 1472.82 865.05 C 1491.96 842.26, 1508.99 806.69, 1513.48 780.15 C 1513.86 777.87, 1514.52 776, 1514.95 776 C 1515.38 776, 1525.48 785.51, 1537.41 797.14 M 1188.43 830.54 C 1187.49 835.54, 1181.81 838.11, 1178.52 835.02 C 1175.51 832.19, 1174.8 832.41, 1170.03 837.58 L 1165.81 842.17 1167.9 844.4 C 1171.62 848.35, 1169.2 854.66, 1163.76 855.19 L 1160.5 855.5 1160.5 862 L 1160.5 868.5 1163.83 868.82 C 1166.58 869.08, 1167.42 869.76, 1168.66 872.72 C 1170.06 876.09, 1170.02 876.48, 1167.97 879.25 L 1165.79 882.21 1170.1 886.6 C 1174.95 891.55, 1175.52 891.71, 1178.92 889.1 C 1182.73 886.17, 1187.33 888.48, 1188 893.66 L 1188.5 897.5 1194.33 897.8 C 1200.99 898.15, 1202.75 897.16, 1203.19 892.83 C 1203.64 888.42, 1208.83 886.29, 1212.36 889.07 C 1215.69 891.69, 1216.38 891.55, 1221 887.38 C 1225.53 883.29, 1225.78 882.26, 1223.1 878.85 C 1220.23 875.2, 1222.47 870.38, 1227.47 869.44 L 1231.09 868.76 1230.79 862.13 L 1230.5 855.5 1227.24 855.19 C 1222.53 854.73, 1219.91 848.79, 1222.98 845.52 C 1225.76 842.56, 1225.61 842.01, 1220.58 837.08 L 1216.17 832.75 1213.13 834.91 C 1210.29 836.93, 1209.87 836.97, 1206.55 835.58 C 1204.19 834.6, 1203 833.44, 1203 832.13 C 1203 827.63, 1202.07 827, 1195.44 827 L 1189.09 827 1188.43 830.54 M 1634 838.3 C 1630.67 839.35, 1609 859.16, 1609 861.16 C 1609 861.62, 1610.69 862, 1612.76 862 C 1614.82 862, 1617.92 862.4, 1619.64 862.9 C 1622.59 863.74, 1623.11 863.45, 1628.63 857.79 C 1631.86 854.48, 1635.85 851.2, 1637.5 850.48 C 1643.36 847.94, 1649.31 851.29, 1650.62 857.87 C 1651.25 861.02, 1650.75 861.67, 1637.35 875.07 C 1620.99 891.43, 1620.72 891.53, 1610.25 884.94 C 1608.17 883.63, 1607.74 883.79, 1604.31 887.22 C 1600.62 890.91, 1600.62 890.92, 1602.56 893.06 C 1609.16 900.36, 1621.22 902.69, 1629.5 898.28 C 1635.05 895.31, 1659.54 870.42, 1661.46 865.78 C 1664.61 858.17, 1662.74 850.47, 1656.14 843.86 C 1649.71 837.43, 1642.52 835.63, 1634 838.3 M 1203.01 849.25 C 1208.54 853.02, 1210.43 856.38, 1210.43 862.5 C 1210.43 878.63, 1189.64 883.4, 1182.19 868.98 C 1177.02 858.98, 1184.28 847, 1195.5 847 C 1198.21 847, 1200.88 847.8, 1203.01 849.25 M 1607.5 866.93 C 1605.85 867.33, 1603.38 868.23, 1602 868.93 C 1598.71 870.62, 1572.23 896.78, 1570.56 900 C 1563.78 913.07, 1574.59 931.02, 1589.22 930.99 C 1597.03 930.98, 1600.12 929.16, 1611.75 917.69 C 1617.94 911.6, 1622.67 906.3, 1622.25 905.93 C 1621.84 905.56, 1618.56 904.97, 1614.98 904.62 L 1608.45 903.99 1602.01 910.49 C 1594.27 918.3, 1590.61 919.86, 1585.59 917.47 C 1580.99 915.29, 1579.28 910.63, 1581.32 905.84 C 1583.14 901.53, 1603.87 881.37, 1608.42 879.47 C 1612.46 877.78, 1616.15 878.73, 1618.94 882.17 L 1620.68 884.32 1625.34 881.11 C 1627.9 879.35, 1630 877.7, 1630 877.45 C 1630 875.23, 1622.04 868.79, 1617.71 867.51 C 1612.2 865.87, 1611.94 865.86, 1607.5 866.93 M 1288.15 904.08 C 1307.71 913.91, 1330.61 921.78, 1353.61 926.56 C 1360.7 928.04, 1366.62 929.34, 1366.76 929.47 C 1366.91 929.59, 1363.26 930.69, 1358.66 931.9 L 1350.3 934.11 1340.4 931.6 C 1320.64 926.58, 1306.67 921.36, 1284.82 910.81 L 1270.14 903.72 1267.57 897.79 C 1266.16 894.53, 1265 891.69, 1265 891.48 C 1265 891.27, 1268.4 893.11, 1272.57 895.57 C 1276.73 898.03, 1283.74 901.86, 1288.15 904.08 M 1127.75 897.59 C 1119.39 900.18, 1113.98 907.87, 1114.01 917.12 C 1114.02 921.95, 1118.22 930.14, 1121.88 932.5 C 1123.59 933.6, 1125 934.82, 1125 935.2 C 1125 935.59, 1121.89 941.07, 1118.08 947.37 C 1114.27 953.67, 1111.31 958.98, 1111.49 959.16 C 1111.67 959.35, 1115.39 959.36, 1119.74 959.18 L 1127.65 958.86 1133.67 948.18 L 1139.68 937.5 1144.34 937.2 L 1149 936.89 1149 947.95 L 1149 959 1156.01 959 L 1163.03 959 1162.76 927.75 L 1162.5 896.5 1147.5 896.31 C 1136.64 896.17, 1131.19 896.52, 1127.75 897.59 M 1149 917 L 1149 926 1144.75 925.96 C 1131.55 925.82, 1125.52 920.94, 1129.16 913.35 C 1131.04 909.42, 1134.46 908.03, 1142.25 908.01 L 1149 908 1149 917 M 1400.09 914.16 C 1388.98 921.79, 1389.44 936.93, 1400.97 942.75 C 1403.42 943.99, 1406.58 945, 1408 945 C 1409.42 945, 1412.58 943.99, 1415.03 942.75 C 1430.03 935.17, 1425.62 913.6, 1408.79 912.25 C 1404.44 911.9, 1402.89 912.24, 1400.09 914.16 M 1641 921.5 L 1641 927 1660.47 927 L 1679.94 927 1680.22 939.75 L 1680.5 952.5 1686.25 952.8 L 1692 953.1 1692 934.55 L 1692 916 1666.5 916 L 1641 916 1641 921.5 M 1301.61 942.15 C 1295.98 943.89, 1292.57 943.09, 1290.25 939.5 C 1289.01 937.59, 1288 935.86, 1288 935.66 C 1288 935.46, 1291.54 936.69, 1295.86 938.4 C 1302.06 940.85, 1303.27 941.64, 1301.61 942.15 M 1526.89 938.25 C 1518.65 950.14, 1518.69 950.12, 1504.85 947.84 L 1497.81 946.68 1508.15 942.95 C 1513.84 940.9, 1520.53 938.3, 1523 937.18 C 1529.13 934.41, 1529.48 934.5, 1526.89 938.25 M 1177.22 954.55 C 1175.96 956.49, 1175.15 958.44, 1175.42 958.88 C 1176.5 960.61, 1201.34 977.25, 1216 986.06 C 1255.82 1009.97, 1300.25 1026.61, 1345.47 1034.55 C 1353.16 1035.9, 1360.95 1037, 1362.78 1037 C 1366.08 1037, 1366.11 1036.95, 1365.81 1032.82 L 1365.5 1028.64 1352 1026.4 C 1293.03 1016.66, 1241.33 995.02, 1191.22 959.09 C 1185.02 954.64, 1179.85 951.01, 1179.72 951.01 C 1179.6 951.02, 1178.47 952.61, 1177.22 954.55 M 1488.43 954.15 L 1495.35 955.41 1488.43 957.2 C 1467.65 962.59, 1444.3 966.32, 1423.68 967.57 L 1411.86 968.28 1412.18 964.39 L 1412.5 960.5 1426.38 959.81 C 1440.9 959.08, 1463.96 955.95, 1472.5 953.55 C 1475.25 952.77, 1478.4 952.31, 1479.5 952.51 C 1480.6 952.72, 1484.62 953.45, 1488.43 954.15 M 1629.5 956.13 C 1584.85 990.45, 1523.73 1016.56, 1465 1026.42 L 1451.5 1028.68 1451.19 1032.84 C 1450.81 1038, 1450.85 1038, 1470.58 1034.54 C 1525.56 1024.9, 1580.13 1002.03, 1626.71 969.13 C 1633.43 964.38, 1638.94 960.12, 1638.96 959.65 C 1639.01 958.51, 1635.03 952.99, 1634.18 953.03 C 1633.81 953.04, 1631.7 954.44, 1629.5 956.13 M 1397.95 1001.71 C 1396.9 1004.99, 1378.39 1055.42, 1376.48 1060.25 C 1375.85 1061.83, 1376.57 1062, 1383.74 1062 L 1391.69 1062 1394.07 1055 L 1396.45 1048 1408.01 1048 L 1419.57 1048 1422 1055 L 1424.43 1062 1432.21 1062 C 1436.5 1062, 1440 1061.77, 1440 1061.49 C 1440 1061.21, 1436.9 1052.55, 1433.11 1042.24 C 1429.33 1031.93, 1424.22 1017.88, 1421.76 1011 L 1417.29 998.5 1408.23 998.21 L 1399.18 997.93 1397.95 1001.71 M 1411.79 1024.8 C 1413.55 1030.19, 1415 1034.92, 1415 1035.3 C 1415 1035.69, 1411.85 1036, 1408 1036 C 1404.15 1036, 1401 1035.69, 1401 1035.3 C 1401 1033.75, 1407.47 1015, 1408 1015 C 1408.32 1015, 1410.02 1019.41, 1411.79 1024.8 M 621 1178.5 L 621 1246 664.03 1246 L 707.06 1246 706.78 1233.75 L 706.5 1221.5 678.25 1221.5 L 650 1221.5 650 1166.25 L 650 1111 635.5 1111 L 621 1111 621 1178.5 M 1477 1178.5 L 1477 1246 1485.38 1246 C 1493.03 1246, 1493.81 1245.82, 1494.31 1243.92 C 1494.61 1242.78, 1494.84 1220.61, 1494.82 1194.67 C 1494.8 1168.73, 1494.85 1147.05, 1494.93 1146.5 C 1495.11 1145.3, 1500.48 1158, 1521.05 1208.27 L 1536.5 1246.04 1543.92 1245.77 L 1551.34 1245.5 1557.52 1230 C 1568.92 1201.39, 1587.13 1156.9, 1590.01 1150.67 L 1592.85 1144.5 1592.93 1195.25 L 1593 1246 1601.5 1246 L 1610 1246 1610 1178.5 L 1610 1111 1599.12 1111 L 1588.24 1111 1584.24 1120.75 C 1558.9 1182.61, 1545 1217.01, 1545 1217.91 C 1545 1218.51, 1544.66 1218.99, 1544.25 1218.98 C 1543.69 1218.97, 1505.14 1127.95, 1499.56 1113.45 C 1498.64 1111.06, 1498.35 1111, 1487.81 1111 L 1477 1111 1477 1178.5 M 747 1144.81 C 732.62 1148.57, 722.91 1157.93, 719.66 1171.18 C 718.92 1174.16, 718.76 1174.12, 737.07 1175.49 L 744.63 1176.05 747.07 1172.28 C 750.2 1167.42, 755.09 1165, 761.78 1165 C 771.49 1165, 777 1169.01, 777 1176.07 C 777 1181.84, 775.01 1182.86, 760.39 1184.55 C 740.03 1186.91, 732.08 1189.48, 724.47 1196.16 C 713.85 1205.49, 712.95 1225.57, 722.65 1236.9 C 734.11 1250.29, 760.27 1251.31, 774.34 1238.93 L 778.89 1234.92 779.2 1240.21 L 779.5 1245.5 792.75 1245.78 L 806 1246.06 805.99 1211.78 C 805.99 1167.63, 805.32 1163.56, 796.69 1154.92 C 786.1 1144.33, 765.15 1140.07, 747 1144.81 M 869.29 1144.39 C 862.12 1146.73, 856.36 1150.74, 853.11 1155.65 L 850 1160.34 850 1152.17 L 850 1144 836.5 1144 L 823 1144 823 1195 L 823 1246 837 1246 L 851 1246 851 1216.55 C 851 1183.06, 851.58 1178.58, 856.61 1173.01 C 864.61 1164.15, 878.87 1165.91, 883.94 1176.37 C 885.87 1180.36, 886.07 1183.05, 886.67 1213.34 L 887.32 1246 901.23 1246 L 915.13 1246 914.79 1208.25 C 914.42 1165.96, 914.25 1164.85, 906.47 1154.66 C 899.34 1145.33, 881.51 1140.4, 869.29 1144.39 M 959.29 1144.45 C 939.79 1150.54, 929.06 1168.41, 929.02 1194.86 C 928.97 1224.29, 944.22 1243.04, 968.5 1243.38 C 979.53 1243.53, 985.76 1241.24, 992.76 1234.46 L 998.21 1229.18 997.84 1240.34 C 997.27 1257.14, 993.38 1261.89, 979.46 1262.78 C 970.06 1263.39, 964.37 1261.42, 959.7 1255.97 L 956.39 1252.09 943.99 1254.08 C 937.17 1255.18, 931.47 1256.19, 931.33 1256.34 C 930.45 1257.22, 937.36 1269.12, 940.62 1272.35 C 958.09 1289.69, 1000.19 1288.93, 1016.31 1271 C 1021.84 1264.85, 1024.63 1259.01, 1025.96 1250.84 C 1027.08 1243.91, 1027.4 1161.88, 1026.35 1150.72 L 1025.71 1143.95 1012.1 1144.22 L 998.5 1144.5 998.2 1151.84 L 997.91 1159.17 995.1 1155.3 C 987.28 1144.5, 972.99 1140.17, 959.29 1144.45 M 1180.74 1144.56 C 1166.8 1147.94, 1157.33 1156.59, 1153.45 1169.5 C 1151.84 1174.86, 1151.19 1174.58, 1167.07 1175.46 L 1177.64 1176.04 1180.07 1172.27 C 1183.29 1167.28, 1188.06 1165, 1195.3 1165 C 1204.29 1165, 1210 1169, 1210 1175.29 C 1210 1181.72, 1207.01 1183.39, 1193.5 1184.51 C 1164.29 1186.94, 1150.52 1196.14, 1149.23 1214.07 C 1148.29 1227.08, 1153.88 1238.09, 1164.04 1243.26 C 1178.62 1250.67, 1196.6 1248.68, 1207.99 1238.39 L 1211.89 1234.87 1212.2 1240.18 L 1212.5 1245.5 1225.5 1245.5 L 1238.5 1245.5 1238.27 1208.58 C 1238.01 1165.93, 1237.77 1164.29, 1230.44 1156.14 C 1220.26 1144.82, 1199.56 1140, 1180.74 1144.56 M 1281.5 1144.98 C 1259.88 1152.13, 1247.68 1179.55, 1253.44 1208.02 C 1257.45 1227.83, 1268.73 1240.03, 1286 1243.24 C 1298.07 1245.48, 1312.2 1240.7, 1318.7 1232.17 L 1322 1227.84 1322 1235.87 C 1322 1255.6, 1316.45 1262.93, 1301.5 1262.97 C 1291.47 1263, 1284.82 1259.94, 1281.37 1253.72 C 1280.43 1252.02, 1279.84 1252.03, 1268.04 1253.95 C 1261.25 1255.06, 1255.48 1256.19, 1255.21 1256.46 C 1254.03 1257.63, 1258.51 1266.35, 1262.64 1270.94 C 1279.38 1289.57, 1321.86 1289.63, 1339.95 1271.05 C 1342.92 1268, 1345.76 1263.76, 1347.17 1260.26 L 1349.5 1254.5 1349.5 1199.5 L 1349.5 1144.5 1335.75 1144.22 L 1322 1143.94 1321.95 1151.72 L 1321.91 1159.5 1319.2 1156.02 C 1311.98 1146.73, 1306.48 1143.78, 1295.5 1143.32 C 1289.51 1143.08, 1285.99 1143.49, 1281.5 1144.98 M 1399.46 1144.39 C 1377.21 1149.8, 1364 1168.65, 1364 1195 C 1364 1210.1, 1366.83 1219.43, 1374.67 1230.2 C 1390 1251.24, 1431.83 1253.42, 1449.3 1234.09 C 1453.31 1229.65, 1457.6 1221.84, 1458.15 1217.99 L 1458.5 1215.5 1445.52 1214.7 C 1436.39 1214.14, 1432.43 1214.22, 1432.17 1214.99 C 1431.33 1217.5, 1426.36 1222.37, 1423.33 1223.64 C 1418.69 1225.58, 1409.3 1225.32, 1404.46 1223.12 C 1398 1220.19, 1393.21 1213.49, 1391.66 1205.25 L 1391.05 1202 1425.03 1202 L 1459 1202 1458.99 1193.25 C 1458.94 1167.99, 1446.58 1150.03, 1425.47 1144.53 C 1418.54 1142.73, 1406.57 1142.67, 1399.46 1144.39 M 1661.4 1144.49 C 1653.08 1146.3, 1645.71 1150.22, 1640.57 1155.59 C 1635.95 1160.41, 1632.42 1167.03, 1633.27 1169.27 C 1634.03 1171.24, 1648.26 1173.73, 1648.84 1171.99 C 1649.07 1171.29, 1650.89 1168.91, 1652.88 1166.7 C 1657.96 1161.05, 1663.83 1158.68, 1672.69 1158.67 C 1685.54 1158.66, 1693.02 1164.67, 1692.98 1174.98 C 1692.96 1182.75, 1691.98 1183.26, 1671.09 1186.49 C 1646.24 1190.32, 1638.32 1193.94, 1632.58 1204.08 C 1626.73 1214.44, 1628.93 1229.2, 1637.67 1238.17 C 1644.02 1244.68, 1651.77 1247.42, 1664 1247.46 C 1676.15 1247.51, 1682.47 1245.19, 1689.91 1237.97 L 1694 1234 1694 1240.04 L 1694 1246.08 1702.02 1245.79 L 1710.03 1245.5 1710.23 1207.5 C 1710.43 1170.21, 1710.39 1169.39, 1708.18 1163.86 C 1701.93 1148.16, 1682.16 1139.97, 1661.4 1144.49 M 1769.5 1144.34 C 1761.12 1146.52, 1753.8 1151.88, 1750.16 1158.5 C 1749.28 1160.1, 1749.05 1158.94, 1749.03 1152.75 L 1749 1145 1741.02 1145 L 1733.04 1145 1732.77 1165.75 C 1732.62 1177.16, 1732.63 1199.89, 1732.78 1216.25 L 1733.06 1246 1741.48 1246 L 1749.9 1246 1750.2 1210.75 C 1750.49 1176.87, 1750.58 1175.34, 1752.65 1171.5 C 1757.19 1163.08, 1763.47 1159.55, 1774 1159.52 C 1780.37 1159.5, 1782.19 1159.91, 1786.11 1162.21 C 1796.09 1168.08, 1797 1172.39, 1797 1213.75 L 1797 1246.08 1805.25 1245.79 L 1813.5 1245.5 1813.19 1208.5 C 1812.85 1167.56, 1812.45 1164.37, 1806.71 1156.85 C 1798.08 1145.52, 1783.64 1140.67, 1769.5 1144.34 M 1865.76 1144.03 C 1850.17 1146.66, 1837.67 1156.38, 1835.42 1167.63 C 1834.83 1170.62, 1834.83 1170.62, 1841.28 1171.81 C 1850.17 1173.45, 1850.19 1173.44, 1852.95 1168.97 C 1859.53 1158.3, 1877.02 1154.91, 1888.58 1162.05 C 1892.28 1164.34, 1895 1170.18, 1895 1175.87 C 1895 1182.34, 1892.3 1183.6, 1872.28 1186.49 C 1846.3 1190.24, 1836.27 1195.8, 1832.42 1208.61 C 1827.93 1223.51, 1834.7 1237.95, 1849.27 1244.58 C 1854.75 1247.07, 1856.7 1247.42, 1865.5 1247.46 C 1877.31 1247.51, 1884.48 1244.85, 1891.75 1237.74 L 1896 1233.58 1896 1239.79 L 1896 1246 1904.57 1246 L 1913.15 1246 1912.77 1207.75 C 1912.33 1164.31, 1912.26 1163.84, 1904.36 1155.06 C 1895.81 1145.54, 1881.34 1141.41, 1865.76 1144.03 M 1964.05 1144.03 C 1935.45 1150.04, 1920.55 1191.4, 1935.98 1221.95 C 1948.42 1246.61, 1983.67 1251.8, 1999.25 1231.27 L 2002 1227.64 2002 1238.14 C 2002 1255.56, 1998.73 1262.71, 1988.77 1267.02 C 1981.34 1270.24, 1968.68 1270.25, 1961.26 1267.03 C 1956.38 1264.92, 1949 1258.27, 1949 1256 C 1949 1255.45, 1948.52 1255, 1947.93 1255 C 1946.36 1255, 1934.04 1262.36, 1934.02 1263.32 C 1933.97 1265.38, 1940.5 1273.25, 1944.61 1276.08 C 1952.23 1281.32, 1959.19 1283.31, 1971.6 1283.78 C 1998.59 1284.81, 2014.46 1274.59, 2017.98 1253.89 C 2018.69 1249.69, 2018.97 1229.81, 2018.78 1196 L 2018.5 1144.5 2010.5 1144.5 L 2002.5 1144.5 2002 1151.97 L 2001.5 1159.44 1999.76 1156.77 C 1993 1146.4, 1978.09 1141.08, 1964.05 1144.03 M 2073.72 1144.04 C 2061.63 1146.07, 2049.34 1155.25, 2043.15 1166.87 C 2032.17 1187.47, 2035.09 1217.76, 2049.62 1233.93 C 2065.1 1251.14, 2099.51 1252.32, 2115.29 1236.18 C 2119.97 1231.39, 2125.44 1221.99, 2124.2 1220.88 C 2123.81 1220.54, 2120.15 1219.45, 2116.05 1218.47 C 2108.91 1216.76, 2108.56 1216.76, 2107.55 1218.46 C 2102.21 1227.5, 2098.63 1230.31, 2090.19 1232.07 C 2079.24 1234.35, 2066.94 1230.04, 2060.99 1221.83 C 2057.5 1217, 2054 1208.08, 2054 1203.98 L 2054 1201.03 2089.75 1200.76 L 2125.5 1200.5 2125.2 1192 C 2124.8 1180.64, 2123.38 1173.71, 2119.97 1166.5 C 2112.03 1149.69, 2093.53 1140.71, 2073.72 1144.04 M 2177.5 1144.31 C 2171.16 1146.83, 2167.87 1149.22, 2164.05 1154.06 L 2160.09 1159.07 2159.79 1151.78 L 2159.5 1144.5 2151.51 1144.5 L 2143.51 1144.5 2143.39 1188 C 2143.32 1211.93, 2143.49 1234.78, 2143.77 1238.79 L 2144.28 1246.08 2152.39 1245.79 L 2160.5 1245.5 2161 1210.5 L 2161.5 1175.5 2164.28 1170.78 C 2168.74 1163.19, 2174.27 1160.54, 2186 1160.35 L 2195.5 1160.19 2195.5 1151.85 L 2195.5 1143.5 2188 1143.31 C 2183.88 1143.2, 2179.15 1143.65, 2177.5 1144.31 M 1044.2 1182.22 L 1044.5 1220.5 1047.41 1226.79 C 1054.78 1242.77, 1072.53 1250.6, 1089.75 1245.48 C 1095.58 1243.75, 1103.78 1237.7, 1106 1233.5 C 1107.48 1230.71, 1107.51 1230.78, 1108 1238.08 L 1108.5 1245.5 1122 1245.5 L 1135.5 1245.5 1135.29 1228 C 1135.17 1218.38, 1135.05 1195.54, 1135.04 1177.25 L 1135 1144 1121 1144 L 1107 1144 1106.99 1174.75 C 1106.99 1207.35, 1106.58 1210.97, 1102.34 1216 C 1098.74 1220.29, 1094.93 1222, 1089 1222 C 1082.58 1222, 1078.84 1220.08, 1075.85 1215.27 C 1073.54 1211.56, 1073.49 1210.99, 1073 1178 L 1072.5 1144.5 1058.2 1144.22 L 1043.89 1143.94 1044.2 1182.22 M 1986.7 1161.34 C 1997.12 1166.75, 2001.41 1176.24, 2001.46 1194 C 2001.51 1208.32, 1999.33 1214.97, 1992.2 1222.29 C 1982.76 1231.99, 1965 1230.83, 1955.64 1219.9 C 1946.75 1209.5, 1945.01 1186.7, 1952.06 1172.88 C 1954.36 1168.37, 1961.83 1161.68, 1966.22 1160.2 C 1970.79 1158.65, 1982.81 1159.32, 1986.7 1161.34 M 2093.83 1161.6 C 2101.35 1165.35, 2108 1175.63, 2108 1183.51 L 2108 1186 2080.92 1186 L 2053.84 1186 2054.49 1182.75 C 2055.67 1176.81, 2060.9 1167.31, 2064.51 1164.56 C 2072.62 1158.37, 2084.87 1157.14, 2093.83 1161.6 M 1421.7 1167.1 C 1426.32 1169.33, 1430.24 1174.81, 1431.48 1180.75 L 1432.16 1184 1412.08 1184 C 1389.5 1184, 1390.28 1184.32, 1393.89 1176.5 C 1398.57 1166.35, 1411.28 1162.05, 1421.7 1167.1 M 986.95 1168.97 C 995.27 1173.22, 998.42 1181.15, 997.81 1196.34 C 997.52 1203.56, 996.87 1207.51, 995.58 1210 C 986.71 1227.1, 965.8 1225.85, 959.44 1207.84 C 957.87 1203.37, 957.35 1189.59, 958.56 1184.43 C 961.94 1170.14, 975.14 1162.95, 986.95 1168.97 M 1309.28 1168.38 C 1316.49 1171.46, 1320.78 1178.96, 1321.71 1190.11 C 1323.22 1208.07, 1314.57 1222.01, 1301.93 1221.99 C 1289.29 1221.97, 1282.27 1213.62, 1281.24 1197.37 C 1280.36 1183.24, 1285.47 1171.5, 1294 1168.12 C 1297.67 1166.66, 1305.59 1166.8, 1309.28 1168.38 M 1693.78 1204.8 C 1693 1218.48, 1689.47 1225.2, 1680.75 1229.62 C 1670.4 1234.87, 1656.2 1233.41, 1650.11 1226.47 C 1647.36 1223.34, 1647 1222.23, 1647 1216.83 C 1647 1211.21, 1647.26 1210.49, 1650.36 1207.57 C 1654.47 1203.69, 1657.87 1202.64, 1674.5 1200.1 C 1681.65 1199.01, 1688.63 1197.67, 1690 1197.12 C 1694.18 1195.46, 1694.29 1195.7, 1693.78 1204.8 M 1895.65 1205.1 C 1894.88 1215.99, 1892.82 1221.15, 1887.22 1226.19 C 1871.41 1240.44, 1843.37 1230.21, 1849.26 1212.34 C 1851.52 1205.48, 1856.87 1203.13, 1877.44 1199.97 C 1884.07 1198.95, 1890.63 1197.67, 1892 1197.12 C 1896.23 1195.44, 1896.32 1195.65, 1895.65 1205.1 M 777 1212.9 C 774.66 1222.2, 768.26 1226.94, 757.98 1226.98 C 746.77 1227.02, 740.48 1219.75, 744.59 1211.48 C 747.08 1206.45, 751.1 1204.53, 763.45 1202.46 C 768.92 1201.54, 774.32 1200.44, 775.45 1200.02 C 777.31 1199.33, 777.53 1199.69, 777.81 1203.85 C 777.99 1206.37, 777.62 1210.44, 777 1212.9 M 1210.79 1206.33 C 1210.16 1216.17, 1207.38 1221.13, 1200.62 1224.5 C 1187.02 1231.28, 1171.88 1222.86, 1177.29 1211.51 C 1179.68 1206.51, 1182.19 1205.33, 1196.5 1202.48 C 1203.61 1201.07, 1209.63 1199.7, 1209.88 1199.45 C 1211.06 1198.27, 1211.23 1199.53, 1210.79 1206.33" stroke="none" fill="#CED0D6" fill-rule="evenodd" data-fill-layer-id="trace-color"/></svg>